<svg xmlns="http://www.w3.org/2000/svg" version="1.1" xmlns:xlink="http://www.w3.org/1999/xlink" xmlns:svgjs="http://svgjs.com/svgjs" width="1920" height="1080" preserveAspectRatio="none" viewBox="0 0 1920 1080"><g mask="url(&quot;#SvgjsMask1389&quot;)" fill="none"><use xlink:href="#SvgjsG1394" transform="translate(0, 0)" fill="rgba(239, 107, 107, 1)"></use><use xlink:href="#SvgjsG1394" transform="translate(0, 529)" fill="rgba(239, 107, 107, 1)"></use><use xlink:href="#SvgjsG1394" transform="translate(0, 1058)" fill="rgba(239, 107, 107, 1)"></use><use xlink:href="#SvgjsG1394" transform="translate(529, 0)" fill="rgba(239, 107, 107, 1)"></use><use xlink:href="#SvgjsG1394" transform="translate(529, 529)" fill="rgba(239, 107, 107, 1)"></use><use xlink:href="#SvgjsG1394" transform="translate(529, 1058)" fill="rgba(239, 107, 107, 1)"></use><use xlink:href="#SvgjsG1394" transform="translate(1058, 0)" fill="rgba(239, 107, 107, 1)"></use><use xlink:href="#SvgjsG1394" transform="translate(1058, 529)" fill="rgba(239, 107, 107, 1)"></use><use xlink:href="#SvgjsG1394" transform="translate(1058, 1058)" fill="rgba(239, 107, 107, 1)"></use><use xlink:href="#SvgjsG1394" transform="translate(1587, 0)" fill="rgba(239, 107, 107, 1)"></use><use xlink:href="#SvgjsG1394" transform="translate(1587, 529)" fill="rgba(239, 107, 107, 1)"></use><use xlink:href="#SvgjsG1394" transform="translate(1587, 1058)" fill="rgba(239, 107, 107, 1)"></use></g><defs><mask id="SvgjsMask1389"><rect width="1920" height="1080" fill="#ffffff"></rect></mask><g id="SvgjsG1393"><path d="M7.713 15.485C3.459 15.485 0 12.025 0 7.768 0 3.513 3.459 0.051 7.713 0.051S15.432 3.513 15.432 7.768c0 4.257-3.465 7.716-7.719 7.717z m0-1.91c3.201 0 5.81-2.604 5.81-5.809 0-3.199-2.61-5.807-5.81-5.807-3.202 0-5.804 2.609-5.804 5.807-0.001 3.206 2.602 5.809 5.804 5.809z"></path><path d="M7.753 8.787a0.574 0.574 0 0 1-0.554-0.042 0.578 0.578 0 0 1-0.259-0.399L6.931 3.862a0.58 0.58 0 0 1 1.162 0v3.478l2.975-1.4a0.578 0.578 0 0 1 0.773 0.275c0.138 0.292 0.011 0.637-0.276 0.774l-3.81 1.798z"></path></g><g id="SvgjsG1391"><path d="M2.524 8.637H0.014V7.308h2.51v1.329zM3.656 4.576L1.884 2.804l0.935-0.935 1.772 1.772-0.935 0.935z m0 6.817l0.935 0.935-1.772 1.773-0.934-0.936 1.771-1.772z m4.997-8.884h-1.33V-0.002h1.33v2.511z m-1.33 10.952h1.33v2.51h-1.33v-2.509zM12.344 4.576l-0.96-0.935 1.796-1.772 0.935 0.935-1.772 1.772z m0 6.792l1.771 1.797-0.935 0.936-1.771-1.774 0.936-0.96z m3.643-4.06v1.329h-2.51V7.308h2.509z"></path><path d="M3.702 7.984a4.184 4.184 0 1 0 8.368 0 4.184 4.184 0 1 0-8.368 0"></path></g><g id="SvgjsG1392"><path d="M4.83 7.808l-1.579 1.253-2.019 1.547c-0.576 0.452-1.048-0.092-1.048-0.092-0.448-0.588 0.067-0.973 0.066-0.973l2.517-1.968s0.275-0.287 0.999-0.081l1.064 0.315m2.949-2.516c-0.79 0-1.427-0.637-1.427-1.427s0.637-1.434 1.427-1.433 1.432 0.643 1.432 1.433-0.641 1.427-1.432 1.427M4.24 13.121a0.765 0.765 0 0 0-0.765-0.765 0.764 0.764 0 0 0-0.765 0.765 0.764 0.764 0 0 0 0.765 0.765 0.764 0.764 0 0 0 0.765-0.765m7.083 0a0.765 0.765 0 0 0-0.765-0.765c-0.421 0-0.763 0.342-0.763 0.765a0.764 0.764 0 1 0 1.528 0m-8.782-1.504c-0.098-0.271-0.14-0.566-0.073-0.865a1.55 1.55 0 0 1 0.508-0.824l10.582-8.423C13.816 1.316 14.132 1.2 14.476 1.2A1.522 1.522 0 0 1 16 2.726c0 0.492-0.224 0.928-0.58 1.209-0.126 0.11-0.31 0.096-0.417-0.031a0.298 0.298 0 0 1 0.034-0.427c0.228-0.167 0.372-0.442 0.372-0.751 0-0.515-0.419-0.934-0.932-0.934-0.219 0-0.411 0.073-0.569 0.19L10.833 4.432l-1.609 4.656 0.976 2.319c0.114-0.026 0.236-0.047 0.358-0.047 0.975 0 1.764 0.79 1.763 1.761 0 0.977-0.788 1.762-1.763 1.762a1.758 1.758 0 0 1-1.76-1.762 1.744 1.744 0 0 1 0.828-1.49L8.923 9.952l-0.059 0.179c-0.214 0.659-0.926 1.019-1.584 0.8l-3.266-1.077-0.638 0.509a0.95 0.95 0 0 0-0.316 0.507c-0.043 0.19-0.012 0.373 0.051 0.537 0.114-0.022 0.24-0.047 0.364-0.048 0.971 0 1.76 0.79 1.76 1.762 0 0.978-0.789 1.762-1.76 1.762s-1.764-0.785-1.764-1.762c0.001-0.637 0.323-1.196 0.83-1.504"></path></g><g id="SvgjsG1390"><path d="M1.12 8.836c1.001-1.179 2.827-2.005 4.388-1.743 0.174-2.151-0.071-4.156 1-6.133C3.189 1.173 1.648 6.247 1.12 8.836M12.892 5.07c0.697-0.83 2.347-1.253 3.213-0.476C13.849 1.44 11.058-0.583 7.086 0.764c3.102 0.942 5.276 3.84 5.805 4.306"></path><path d="M12.267 5.198C11.182 3.684 7.769 1.266 7.019 1.417c-0.8 0.16-1.022 4.702-0.95 5.676 0.475-0.892 1.202-1.564 2.045-1.984l3.461 9.423 0.475-0.12-3.494-9.493c1.156-0.427 2.484-0.391 3.712 0.279"></path></g><g id="SvgjsG1394"><use xlink:href="#SvgjsG1390" transform="translate(0, 0) scale(2.3)" fill="rgba(239, 107, 107, 1)"></use><use xlink:href="#SvgjsG1390" transform="translate(0, 52.9) scale(2.3)" fill="rgba(239, 107, 107, 1)"></use><use xlink:href="#SvgjsG1391" transform="translate(0, 105.8) scale(2.3)" fill="rgba(239, 107, 107, 1)"></use><use xlink:href="#SvgjsG1392" transform="translate(0, 158.7) scale(2.3)" fill="rgba(239, 107, 107, 1)"></use><use xlink:href="#SvgjsG1391" transform="translate(0, 211.6) scale(2.3)" fill="rgba(239, 107, 107, 1)"></use><use xlink:href="#SvgjsG1393" transform="translate(0, 264.5) scale(2.3)" fill="rgba(239, 107, 107, 1)"></use><use xlink:href="#SvgjsG1393" transform="translate(0, 317.4) scale(2.3)" fill="rgba(239, 107, 107, 1)"></use><use xlink:href="#SvgjsG1393" transform="translate(0, 370.3) scale(2.3)" fill="rgba(239, 107, 107, 1)"></use><use xlink:href="#SvgjsG1393" transform="translate(0, 423.2) scale(2.3)" fill="rgba(239, 107, 107, 1)"></use><use xlink:href="#SvgjsG1391" transform="translate(0, 476.09999999999997) scale(2.3)" fill="rgba(239, 107, 107, 1)"></use><use xlink:href="#SvgjsG1392" transform="translate(52.9, 0) scale(2.3)" fill="rgba(239, 107, 107, 1)"></use><use xlink:href="#SvgjsG1391" transform="translate(52.9, 52.9) scale(2.3)" fill="rgba(239, 107, 107, 1)"></use><use xlink:href="#SvgjsG1390" transform="translate(52.9, 105.8) scale(2.3)" fill="rgba(239, 107, 107, 1)"></use><use xlink:href="#SvgjsG1393" transform="translate(52.9, 158.7) scale(2.3)" fill="rgba(239, 107, 107, 1)"></use><use xlink:href="#SvgjsG1391" transform="translate(52.9, 211.6) scale(2.3)" fill="rgba(239, 107, 107, 1)"></use><use xlink:href="#SvgjsG1393" transform="translate(52.9, 264.5) scale(2.3)" fill="rgba(239, 107, 107, 1)"></use><use xlink:href="#SvgjsG1391" transform="translate(52.9, 317.4) scale(2.3)" fill="rgba(239, 107, 107, 1)"></use><use xlink:href="#SvgjsG1390" transform="translate(52.9, 370.3) scale(2.3)" fill="rgba(239, 107, 107, 1)"></use><use xlink:href="#SvgjsG1392" transform="translate(52.9, 423.2) scale(2.3)" fill="rgba(239, 107, 107, 1)"></use><use xlink:href="#SvgjsG1391" transform="translate(52.9, 476.09999999999997) scale(2.3)" fill="rgba(239, 107, 107, 1)"></use><use xlink:href="#SvgjsG1391" transform="translate(105.8, 0) scale(2.3)" fill="rgba(239, 107, 107, 1)"></use><use xlink:href="#SvgjsG1390" transform="translate(105.8, 52.9) scale(2.3)" fill="rgba(239, 107, 107, 1)"></use><use xlink:href="#SvgjsG1392" transform="translate(105.8, 105.8) scale(2.3)" fill="rgba(239, 107, 107, 1)"></use><use xlink:href="#SvgjsG1391" transform="translate(105.8, 158.7) scale(2.3)" fill="rgba(239, 107, 107, 1)"></use><use xlink:href="#SvgjsG1393" transform="translate(105.8, 211.6) scale(2.3)" fill="rgba(239, 107, 107, 1)"></use><use xlink:href="#SvgjsG1391" transform="translate(105.8, 264.5) scale(2.3)" fill="rgba(239, 107, 107, 1)"></use><use xlink:href="#SvgjsG1391" transform="translate(105.8, 317.4) scale(2.3)" fill="rgba(239, 107, 107, 1)"></use><use xlink:href="#SvgjsG1392" transform="translate(105.8, 370.3) scale(2.3)" fill="rgba(239, 107, 107, 1)"></use><use xlink:href="#SvgjsG1393" transform="translate(105.8, 423.2) scale(2.3)" fill="rgba(239, 107, 107, 1)"></use><use xlink:href="#SvgjsG1393" transform="translate(105.8, 476.09999999999997) scale(2.3)" fill="rgba(239, 107, 107, 1)"></use><use xlink:href="#SvgjsG1390" transform="translate(158.7, 0) scale(2.3)" fill="rgba(239, 107, 107, 1)"></use><use xlink:href="#SvgjsG1392" transform="translate(158.7, 52.9) scale(2.3)" fill="rgba(239, 107, 107, 1)"></use><use xlink:href="#SvgjsG1392" transform="translate(158.7, 105.8) scale(2.3)" fill="rgba(239, 107, 107, 1)"></use><use xlink:href="#SvgjsG1392" transform="translate(158.7, 158.7) scale(2.3)" fill="rgba(239, 107, 107, 1)"></use><use xlink:href="#SvgjsG1393" transform="translate(158.7, 211.6) scale(2.3)" fill="rgba(239, 107, 107, 1)"></use><use xlink:href="#SvgjsG1392" transform="translate(158.7, 264.5) scale(2.3)" fill="rgba(239, 107, 107, 1)"></use><use xlink:href="#SvgjsG1390" transform="translate(158.7, 317.4) scale(2.3)" fill="rgba(239, 107, 107, 1)"></use><use xlink:href="#SvgjsG1392" transform="translate(158.7, 370.3) scale(2.3)" fill="rgba(239, 107, 107, 1)"></use><use xlink:href="#SvgjsG1392" transform="translate(158.7, 423.2) scale(2.3)" fill="rgba(239, 107, 107, 1)"></use><use xlink:href="#SvgjsG1393" transform="translate(158.7, 476.09999999999997) scale(2.3)" fill="rgba(239, 107, 107, 1)"></use><use xlink:href="#SvgjsG1393" transform="translate(211.6, 0) scale(2.3)" fill="rgba(239, 107, 107, 1)"></use><use xlink:href="#SvgjsG1390" transform="translate(211.6, 52.9) scale(2.3)" fill="rgba(239, 107, 107, 1)"></use><use xlink:href="#SvgjsG1391" transform="translate(211.6, 105.8) scale(2.3)" fill="rgba(239, 107, 107, 1)"></use><use xlink:href="#SvgjsG1391" transform="translate(211.6, 158.7) scale(2.3)" fill="rgba(239, 107, 107, 1)"></use><use xlink:href="#SvgjsG1392" transform="translate(211.6, 211.6) scale(2.3)" fill="rgba(239, 107, 107, 1)"></use><use xlink:href="#SvgjsG1393" transform="translate(211.6, 264.5) scale(2.3)" fill="rgba(239, 107, 107, 1)"></use><use xlink:href="#SvgjsG1393" transform="translate(211.6, 317.4) scale(2.3)" fill="rgba(239, 107, 107, 1)"></use><use xlink:href="#SvgjsG1390" transform="translate(211.6, 370.3) scale(2.3)" fill="rgba(239, 107, 107, 1)"></use><use xlink:href="#SvgjsG1390" transform="translate(211.6, 423.2) scale(2.3)" fill="rgba(239, 107, 107, 1)"></use><use xlink:href="#SvgjsG1390" transform="translate(211.6, 476.09999999999997) scale(2.3)" fill="rgba(239, 107, 107, 1)"></use><use xlink:href="#SvgjsG1390" transform="translate(264.5, 0) scale(2.3)" fill="rgba(239, 107, 107, 1)"></use><use xlink:href="#SvgjsG1390" transform="translate(264.5, 52.9) scale(2.3)" fill="rgba(239, 107, 107, 1)"></use><use xlink:href="#SvgjsG1391" transform="translate(264.5, 105.8) scale(2.3)" fill="rgba(239, 107, 107, 1)"></use><use xlink:href="#SvgjsG1393" transform="translate(264.5, 158.7) scale(2.3)" fill="rgba(239, 107, 107, 1)"></use><use xlink:href="#SvgjsG1393" transform="translate(264.5, 211.6) scale(2.3)" fill="rgba(239, 107, 107, 1)"></use><use xlink:href="#SvgjsG1391" transform="translate(264.5, 264.5) scale(2.3)" fill="rgba(239, 107, 107, 1)"></use><use xlink:href="#SvgjsG1391" transform="translate(264.5, 317.4) scale(2.3)" fill="rgba(239, 107, 107, 1)"></use><use xlink:href="#SvgjsG1392" transform="translate(264.5, 370.3) scale(2.3)" fill="rgba(239, 107, 107, 1)"></use><use xlink:href="#SvgjsG1392" transform="translate(264.5, 423.2) scale(2.3)" fill="rgba(239, 107, 107, 1)"></use><use xlink:href="#SvgjsG1391" transform="translate(264.5, 476.09999999999997) scale(2.3)" fill="rgba(239, 107, 107, 1)"></use><use xlink:href="#SvgjsG1390" transform="translate(317.4, 0) scale(2.3)" fill="rgba(239, 107, 107, 1)"></use><use xlink:href="#SvgjsG1391" transform="translate(317.4, 52.9) scale(2.3)" fill="rgba(239, 107, 107, 1)"></use><use xlink:href="#SvgjsG1393" transform="translate(317.4, 105.8) scale(2.3)" fill="rgba(239, 107, 107, 1)"></use><use xlink:href="#SvgjsG1390" transform="translate(317.4, 158.7) scale(2.3)" fill="rgba(239, 107, 107, 1)"></use><use xlink:href="#SvgjsG1390" transform="translate(317.4, 211.6) scale(2.3)" fill="rgba(239, 107, 107, 1)"></use><use xlink:href="#SvgjsG1392" transform="translate(317.4, 264.5) scale(2.3)" fill="rgba(239, 107, 107, 1)"></use><use xlink:href="#SvgjsG1393" transform="translate(317.4, 317.4) scale(2.3)" fill="rgba(239, 107, 107, 1)"></use><use xlink:href="#SvgjsG1390" transform="translate(317.4, 370.3) scale(2.3)" fill="rgba(239, 107, 107, 1)"></use><use xlink:href="#SvgjsG1390" transform="translate(317.4, 423.2) scale(2.3)" fill="rgba(239, 107, 107, 1)"></use><use xlink:href="#SvgjsG1391" transform="translate(317.4, 476.09999999999997) scale(2.3)" fill="rgba(239, 107, 107, 1)"></use><use xlink:href="#SvgjsG1391" transform="translate(370.3, 0) scale(2.3)" fill="rgba(239, 107, 107, 1)"></use><use xlink:href="#SvgjsG1390" transform="translate(370.3, 52.9) scale(2.3)" fill="rgba(239, 107, 107, 1)"></use><use xlink:href="#SvgjsG1392" transform="translate(370.3, 105.8) scale(2.3)" fill="rgba(239, 107, 107, 1)"></use><use xlink:href="#SvgjsG1393" transform="translate(370.3, 158.7) scale(2.3)" fill="rgba(239, 107, 107, 1)"></use><use xlink:href="#SvgjsG1390" transform="translate(370.3, 211.6) scale(2.3)" fill="rgba(239, 107, 107, 1)"></use><use xlink:href="#SvgjsG1390" transform="translate(370.3, 264.5) scale(2.3)" fill="rgba(239, 107, 107, 1)"></use><use xlink:href="#SvgjsG1392" transform="translate(370.3, 317.4) scale(2.3)" fill="rgba(239, 107, 107, 1)"></use><use xlink:href="#SvgjsG1390" transform="translate(370.3, 370.3) scale(2.3)" fill="rgba(239, 107, 107, 1)"></use><use xlink:href="#SvgjsG1392" transform="translate(370.3, 423.2) scale(2.3)" fill="rgba(239, 107, 107, 1)"></use><use xlink:href="#SvgjsG1391" transform="translate(370.3, 476.09999999999997) scale(2.3)" fill="rgba(239, 107, 107, 1)"></use><use xlink:href="#SvgjsG1391" transform="translate(423.2, 0) scale(2.3)" fill="rgba(239, 107, 107, 1)"></use><use xlink:href="#SvgjsG1393" transform="translate(423.2, 52.9) scale(2.3)" fill="rgba(239, 107, 107, 1)"></use><use xlink:href="#SvgjsG1390" transform="translate(423.2, 105.8) scale(2.3)" fill="rgba(239, 107, 107, 1)"></use><use xlink:href="#SvgjsG1390" transform="translate(423.2, 158.7) scale(2.3)" fill="rgba(239, 107, 107, 1)"></use><use xlink:href="#SvgjsG1393" transform="translate(423.2, 211.6) scale(2.3)" fill="rgba(239, 107, 107, 1)"></use><use xlink:href="#SvgjsG1391" transform="translate(423.2, 264.5) scale(2.3)" fill="rgba(239, 107, 107, 1)"></use><use xlink:href="#SvgjsG1393" transform="translate(423.2, 317.4) scale(2.3)" fill="rgba(239, 107, 107, 1)"></use><use xlink:href="#SvgjsG1391" transform="translate(423.2, 370.3) scale(2.3)" fill="rgba(239, 107, 107, 1)"></use><use xlink:href="#SvgjsG1393" transform="translate(423.2, 423.2) scale(2.3)" fill="rgba(239, 107, 107, 1)"></use><use xlink:href="#SvgjsG1390" transform="translate(423.2, 476.09999999999997) scale(2.3)" fill="rgba(239, 107, 107, 1)"></use><use xlink:href="#SvgjsG1391" transform="translate(476.09999999999997, 0) scale(2.3)" fill="rgba(239, 107, 107, 1)"></use><use xlink:href="#SvgjsG1393" transform="translate(476.09999999999997, 52.9) scale(2.3)" fill="rgba(239, 107, 107, 1)"></use><use xlink:href="#SvgjsG1392" transform="translate(476.09999999999997, 105.8) scale(2.3)" fill="rgba(239, 107, 107, 1)"></use><use xlink:href="#SvgjsG1391" transform="translate(476.09999999999997, 158.7) scale(2.3)" fill="rgba(239, 107, 107, 1)"></use><use xlink:href="#SvgjsG1392" transform="translate(476.09999999999997, 211.6) scale(2.3)" fill="rgba(239, 107, 107, 1)"></use><use xlink:href="#SvgjsG1392" transform="translate(476.09999999999997, 264.5) scale(2.3)" fill="rgba(239, 107, 107, 1)"></use><use xlink:href="#SvgjsG1392" transform="translate(476.09999999999997, 317.4) scale(2.3)" fill="rgba(239, 107, 107, 1)"></use><use xlink:href="#SvgjsG1390" transform="translate(476.09999999999997, 370.3) scale(2.3)" fill="rgba(239, 107, 107, 1)"></use><use xlink:href="#SvgjsG1392" transform="translate(476.09999999999997, 423.2) scale(2.3)" fill="rgba(239, 107, 107, 1)"></use><use xlink:href="#SvgjsG1392" transform="translate(476.09999999999997, 476.09999999999997) scale(2.3)" fill="rgba(239, 107, 107, 1)"></use></g></defs></svg>